<svg xmlns="http://www.w3.org/2000/svg" viewBox="0 0 648.48 588.04"><defs><style>.cls-1{fill:#b6b6ff;}.cls-2,.cls-28{fill:#fff;}.cls-3{fill:#aedcfc;}.cls-4{fill:#f9de3d;}.cls-16,.cls-34,.cls-35,.cls-37,.cls-5,.cls-7{fill:none;stroke-miterlimit:10;}.cls-5{stroke:#aae1f9;}.cls-6{fill:#430089;}.cls-7{stroke:#7d6ed6;stroke-width:12px;}.cls-8{fill:#7d6ed6;}.cls-9{fill:#cfe9ff;}.cls-10{fill:#8584d3;}.cls-11{fill:#0c6000;}.cls-12{fill:#189306;}.cls-13{fill:#167006;}.cls-14{fill:#109905;}.cls-15{fill:#157704;}.cls-16{stroke:#e6f5ff;stroke-width:7px;}.cls-17{fill:#e6f5ff;}.cls-18{fill:#51310f;}.cls-19{fill:#774d15;}.cls-20{fill:#001ab5;}.cls-21{fill:#001f82;}.cls-22{fill:#0526af;}.cls-23{fill:#424242;}.cls-24{fill:#1938f2;}.cls-25{fill:#efbb60;}.cls-26{fill:#fdfeff;}.cls-27{fill:#db0000;}.cls-28{font-size:16px;font-family:MyriadPro-Regular, Myriad Pro;}.cls-29{letter-spacing:-0.01em;}.cls-30{fill:#aec5d1;}.cls-31{fill:#3f3f3f;}.cls-32{fill:#6c7a82;}.cls-33{fill:#b3bfc4;}.cls-34{stroke:#fff;}.cls-34,.cls-35{stroke-width:3px;}.cls-35{stroke:#fdfeff;}.cls-36{fill:#d39b50;}.cls-37{stroke:#000;}</style></defs><title>registrar_bombillo</title><g id="Capa_38" data-name="Capa 38"><path class="cls-1" d="M225,304c0,18.2,52.33,65,52.33,65a118.32,118.32,0,0,1,23.4-14.81A142.24,142.24,0,0,1,329,345s-14.24,7-26.12,13.5-23,17.94-23,17.94,3.33,112,20.66,135.07C317.46,534,367,554.22,367,554.22s40-36,60.5-48.62S493,484,493,484s-49.37,20.26-63.68,31.63-43.54,42.75-43.54,42.75S493.48,561,549,561c78,0,192.47.32,243-47.5,15.93-15.08,70.25-39.68,80.41-64.69,7.76-19.09-27.75-38.42-21.88-53.93C860.53,368.31,827,333.74,827,304c0-26.91,30.53-52.85,22.23-77.22-6.2-18.22-38.56-57.32-38.56-57.32s-39.46,13-55.06,19.76S678,238,678,238s45.16-45.81,65.08-58.41,57.42-23.83,57.42-23.83-36-34.87-51.28-48.18c-28-24.27-71.39-1.26-108.37-13.22C612.1,85.06,581.19,47,549,47c-61,0-117.38,18.15-163.22,48.94a272,272,0,0,0-50.25,43.42c-7.8,8.63-52,17.74-58.53,27.28-13.62,19.87,12.63,41.58,5.29,64.64S225,278.74,225,304Z" transform="translate(-225 -47)"/><path class="cls-2" d="M567,435s62-63,68-68,32-21,44-27,58-16,58-16-47,20-58,26-31,18-40,25S567,435,567,435Z" transform="translate(-225 -47)"/></g><g id="Capa_40" data-name="Capa 40"><path class="cls-3" d="M630,296H459S433,97,544.5,97,630,296,630,296Z" transform="translate(-225 -47)"/><circle class="cls-4" cx="288.5" cy="89.5" r="10.5"/><path class="cls-5" d="M629,296H458S432,97,543.5,97,629,296,629,296Z" transform="translate(-225 -47)"/></g><g id="Capa_41" data-name="Capa 41"><rect class="cls-6" x="333" y="102" width="55" height="9"/><rect class="cls-6" x="333" y="107" width="2" height="142"/><rect class="cls-6" x="243" y="121" width="36" height="8"/><rect class="cls-6" x="278" y="123" width="1" height="63"/><rect class="cls-6" x="279" y="140" width="54" height="17"/><path class="cls-6" d="M582.74,185H565.63s-2.6-20,8.56-20S582.74,185,582.74,185Z" transform="translate(-225 -47)"/><path class="cls-6" d="M609.74,185H592.63s-2.6-20,8.56-20S609.74,185,609.74,185Z" transform="translate(-225 -47)"/><path class="cls-2" d="M582.74,224H565.63s-2.6-20,8.56-20S582.74,224,582.74,224Z" transform="translate(-225 -47)"/><path class="cls-2" d="M609.74,224H592.63s-2.6-20,8.56-20S609.74,224,609.74,224Z" transform="translate(-225 -47)"/><path class="cls-2" d="M583.74,263H566.63s-2.6-20,8.56-20S583.74,263,583.74,263Z" transform="translate(-225 -47)"/><path class="cls-2" d="M609.74,263H592.63s-2.6-20,8.56-20S609.74,263,609.74,263Z" transform="translate(-225 -47)"/><rect class="cls-6" x="243" y="138" width="30" height="12"/><rect class="cls-6" x="309" y="163" width="19" height="21"/><rect class="cls-6" x="283" y="163" width="20" height="21"/></g><g id="Capa_42" data-name="Capa 42"><path class="cls-7" d="M629,295H458S432,96,543.5,96,629,295,629,295Z" transform="translate(-225 -47)"/><rect class="cls-8" x="314" y="50" width="10" height="199"/><rect class="cls-8" x="230" y="162" width="177" height="10"/></g><g id="Capa_18" data-name="Capa 18"><path class="cls-9" d="M260,559.69a10.48,10.48,0,0,1,.37-3.66c2.85-10.08,12.78-16.65,18.61-24.47a40.53,40.53,0,0,1,6.13-7c3.35-2.79,7.43-4.31,11.43-5.77l32.32-11.85c18.73-6.87,41.76,2.92,60.66,7.14L429.6,523l44.77.5c31,.35,63.2-6.39,94.19-8.89,56.59-4.55,113.28-7.66,170-6.11,5.12.13,21.79-1.79,21.16,5.8s-24.25,11.47-12.07,23.05c7.43,7.06,28.67,6.16,38,5.15l36.92-4c9.22-1,24.29,2.2,31.82,8.52,10.78,9-5.85,17.59-10.81,23.48a19.86,19.86,0,0,1-4.56,4.37,18.23,18.23,0,0,1-6,2c-17.21,3.59-34.44,7.07-51.63,10.77-14,3-18.79,8.31-27.09,20.73a11.24,11.24,0,0,1-3.77,4,9.93,9.93,0,0,1-5.3.6c-12.48-.85-25-2-37.48-2.09-18.08-.21-36.18-.14-54.22,1.31-30.4,2.43-59.56,17.82-90.16,22-34,4.66-65.27-12.29-98.67-15.84-26.13-2.78-52.4-3-78.6-4.45-22.87-1.25-49.08-1.39-71-9.3-11.58-4.18-21.83-11.5-31.28-19.74C277.57,579.45,260.84,570.35,260,559.69Z" transform="translate(-225 -47)"/></g><g id="Capa_39" data-name="Capa 39"><path class="cls-10" d="M693,470s5.5,44.5-28.5,45S634,470,634,470l30.5.5Z" transform="translate(-225 -47)"/><path class="cls-11" d="M664.66,470.46s-.3-60.76-9.47-97.07-9.17-36-23.84-72.33S591,226,591,226s25.65,50.21,38.68,80.9c15.32,36.1,17.34,48,21,64.91a364.52,364.52,0,0,1,6.91,44.43c2.19,26.46,1.95,54.12,1.95,54.12l1.76.05Z" transform="translate(-225 -47)"/><path class="cls-12" d="M663.54,470.5S661,412.18,668.7,362.82,700,242,700,242s-21.54,76.78-27.69,117S665.7,470.5,665.7,470.5Z" transform="translate(-225 -47)"/><path class="cls-13" d="M668.2,470.5s11-56.19,20.35-71S720,355,720,355s-26.75,26.79-36.14,41.57S662.5,470.5,662.5,470.5Z" transform="translate(-225 -47)"/><path class="cls-14" d="M665.5,470.5s-9.84-34.12-23.3-62.05S625.82,380.53,612.37,365,566,322,566,322s41.68,43,49.37,55.43c9.61,12.41,12.52,14.17,21.22,31,9.61,18.62,23.14,62.05,23.14,62.05Z" transform="translate(-225 -47)"/><path class="cls-15" d="M607.5,257.5l23,51s-40.53-11.4-45-36c-4-22,5.5-47,5.5-47Z" transform="translate(-225 -47)"/><path class="cls-15" d="M689.5,281.5l-13,46s31-10,37-34c5.42-21.69-13-51-13-51Z" transform="translate(-225 -47)"/><path class="cls-15" d="M600.5,353.5l27,35s-46-3-54-28c-6.81-21.3-7-37-7-37Z" transform="translate(-225 -47)"/><path class="cls-15" d="M619.5,376.5l25,38s7-21-4-41c-10.78-19.59-36-15-36-15Z" transform="translate(-225 -47)"/></g><g id="Capa_37" data-name="Capa 37"><path class="cls-16" d="M368.24,176l-1.59-23.68c-.28-4.05-.55-8.11-.43-12.17.18-6,1.24-12.08.77-18.1,25.35,4.4,50.31,3.84,76,2.34,0,16,0,32.67,0,48.67C443,174.76,391.91,176.22,368.24,176Z" transform="translate(-225 -47)"/><path class="cls-17" d="M368.24,176l-1.59-23.68c-.28-4.05,4.47-8.52,7.85-10.77,6-4,17,9,28,13s15-6,26-5,14,7,14,7,.52,9.58.52,16.51C443,174.76,391.91,176.22,368.24,176Z" transform="translate(-225 -47)"/></g><g id="Capa_34" data-name="Capa 34"><path class="cls-18" d="M809,566l-.87,2.5L806,579l-4.29,1.61c-1.19.45-3.31.46-3.71,1.95a5.5,5.5,0,0,0,1,4.37c.56.71,1.88,2.4,3,2.07l10-3,8-2,2-13-9-10Z" transform="translate(-225 -47)"/></g><g id="Capa_33" data-name="Capa 33"><path class="cls-19" d="M828.3,586.35c.93-1.18-.3-2.75-.3-5.35l-1-9-5-2-5.25,2.5L809,581c-4.19,2.93-11.79,4.58-11.4,10.56.14,2.12,0,2.88,1.88,3.07a32.58,32.58,0,0,0,8.27-.82c2.41-.6,4.88-2.08,7.25-2.81,3.12-1,5.26-.85,8.35-1.92A17.9,17.9,0,0,0,828.3,586.35Z" transform="translate(-225 -47)"/></g><g id="Capa_32" data-name="Capa 32"><path class="cls-20" d="M826,441c.55,5.46,2.09,9.92,2.64,15.37,1,9.81,2.56,20.25,2.11,30.14-.25,5.46-.15,10.06-.75,15.49l-1,10c.22,4.42-.57,8.84-.35,13.26.3,6.09,1.1,12.18.8,18.28-.19,3.94-.55,7.89-.81,11.83-.07,1.13-1,17.13-1.14,17.13a20.42,20.42,0,0,1-5.83,1,23.23,23.23,0,0,1-6.17-1c-1.34-12-3-23.61-3-35.73V523.43a33.49,33.49,0,0,0-1-6.93l-6-25-5,12-5,10c4.44,9.37,8.82,18.5,12.39,28.24l7.24,19.76a6.86,6.86,0,0,1,.37,1,30.34,30.34,0,0,1-4.24,4.18,10.52,10.52,0,0,1-3.76,1.82c-6.06-8.86-12.13-17.55-17.66-26.76l-12.28-20.48c-.67-1.1-4.28-5.43-4.06-6.76l6-36,9.4-36.06Z" transform="translate(-225 -47)"/><polygon class="cls-21" points="580.5 444.5 575.5 456.5 570.5 466.5 579.5 485.5 589.34 512.34 589.5 516.5 587.23 518.7 582.5 521.5 569.5 502.5 548.5 467.5 554.5 431.5 561.9 402.44 571.92 416.21 575.66 424.44 580.5 444.5"/></g><g id="Capa_36" data-name="Capa 36"><rect class="cls-22" x="478" y="395" width="76" height="5"/><polygon class="cls-22" points="538 395 536 395 521 360 523 360 538 395"/></g><g id="Capa_35" data-name="Capa 35"><rect class="cls-6" x="508.28" y="402" width="5.94" height="145"/><rect class="cls-6" x="464" y="400" width="93" height="7"/><rect class="cls-23" x="488" y="543" width="47" height="4"/><polygon class="cls-24" points="536 395 478 396 464 364 521 360 536 395"/></g><g id="Capa_30" data-name="Capa 30"><path class="cls-25" d="M750,384v-2l1.26-2.95a19.67,19.67,0,0,0,1.67-3.93,17.19,17.19,0,0,0,.07-3.21,44.68,44.68,0,0,0,0-4.91l-.5-4.5c-.09-.5-.51-.4-.92-.74-.65.45-1.44,1-1.52,1.75-.12,1-.24,6-.56,7h0c-.31.31-.63.63-.92.95.29-.32-1.29-3.58-1.47-4.11-.53-1.61-1.07-3.23-1.61-4.84-.72-1.68-1.28-2.43-2-4.1a32.81,32.81,0,0,0-2.93-5.53c-.65-.87-1.15-1.84-1.88-2.65a2.13,2.13,0,0,0-1.14-.77c-.36-.08-1.64-.26-1.89.11s.6,1.55.75,1.9l1.35,3c.58,1.32,1.32,2.65,1.78,4l3,9c-.73-.44-1.44-.92-2.17-1.37a15.26,15.26,0,0,0-1.92-1.28c-1.1-.47-1.26.18-1.81,1-.36.55-.71,1.12-1.1,1.65-1.26,1.68-2.66,3.1-3.43,5.09-.42,1.07-1.85,2.55-1.55,3.78.2.84,1.44,1.84,2,2.49a43.07,43.07,0,0,0,4,4.64l7,6Z" transform="translate(-225 -47)"/></g><g id="Capa_24" data-name="Capa 24"><path class="cls-26" d="M821.5,365.5l7,2.88,5.39,2.22c1.24.51,3,1.11,3.7,2.28a45.39,45.39,0,0,1,3.62,8.9c.91,3.12,1.8,6.25,2.62,9.39a121.25,121.25,0,0,1,3.59,19.17l1.5,15.94c.19,2,.19,4.35-1.31,5.36A7.72,7.72,0,0,1,845,433L830.5,434.5l-32,4-2-5v-5l19-4,19-4-3-13c-1.3,3.9-3,7.29-3.1,11.47-.08,2.59-.19,5.18-.29,7.76l-.36,9.32c-.06,1.45.16,2.91,0,4.36-.21,2-.7,2.2-2.25,3.09H800.16c-3.22,0-6.68.83-9.82-.17-2.34-.74-1.89-2.38-2-4.46l-.54-15.68-.33-9.69-1-9-3.32,5.21a68.11,68.11,0,0,1-8.44,10.36c-2.86,2.55-2.6,2.23-5.52,4.71-.93.78-2.89,2.82-3.89,2.31-.32-.16-1.72-.22-1.91-.52-2.58-4.29-5.25-8.53-7.89-12.78-2.07-3.32-4.16-6.63-6.21-10L740.5,389.5c.52.85,9.45-5.93,10.39-6.48l3.16,4.13,9.5,12.48,3,3.87,11.14-23.77c1-2,1.56-3.2,2.67-5.15a11.14,11.14,0,0,1,4.7-4.83l10.49-5.25,26,1" transform="translate(-225 -47)"/><polygon class="cls-27" points="504 341.25 497.48 341.25 493 358 487 341 401 341.25 401 305 504 305 504 341.25"/><rect class="cls-2" x="435" y="332" width="58" height="1"/><text class="cls-28" transform="translate(436.33 327.33)">Nomb<tspan class="cls-29" x="41.76" y="0">r</tspan><tspan x="46.83" y="0">e</tspan></text><circle class="cls-2" cx="419.5" cy="323.5" r="10.5"/></g><g id="Capa_31" data-name="Capa 31"><polygon class="cls-27" points="579.5 319.5 587.5 319.5 582.5 328.5 583.5 387.5 577.5 399.5 572.5 386.33 580.5 328.5 577.5 319.5 579.5 319.5"/></g><g id="Capa_27" data-name="Capa 27"><path class="cls-30" d="M813.67,424.68,796,429a17,17,0,0,0-1.08,2.78,6.34,6.34,0,0,0,.79,3.06c.13.32,1.83,4.63,2.29,4.58l8.5-1,21.29-2.54-.63-7.46,1.37-7.47Z" transform="translate(-225 -47)"/></g><g id="Capa_28" data-name="Capa 28"><path class="cls-25" d="M800,430h-4.45l-5.4.43-4.11.33a11.41,11.41,0,0,0-3.74.55c-1.37.61-2.73,1.26-4.13,1.8a17.7,17.7,0,0,0-4,1.82c-1.77,1.25-3.24,3.15-4.8,4.66-.66.65.4,1.17.79,1.57a1.37,1.37,0,0,0,.27.22,1,1,0,0,0,.29.09c2.06.39,4-1.09,5.79-2l5-1,5-1c-.44,0-1.3.78-1.69,1L783,439.59a23.33,23.33,0,0,0-3.19,1.83c.47.22.81.64,1.26.86,1.07.54,3.29-.49,4.44-.78l3.33-1.25c1.87-.7,3.68-1.73,5.74-1.75.44,0,3.8.4,3.93,0l2-6Z" transform="translate(-225 -47)"/></g><g id="Capa_26" data-name="Capa 26"><path class="cls-2" d="M810.67,425.68,796,429a26.44,26.44,0,0,0-.08,2.78,10.75,10.75,0,0,0,.79,4.06c.13.32.83,2.63,1.29,2.58l17.5-2,12.29-1.54.74-12.93Z" transform="translate(-225 -47)"/></g><g id="Capa_22" data-name="Capa 22"><polygon class="cls-25" points="566 269 564 304 577 304 577 312 576.5 315.5 582.83 316.5 589.5 315.5 591.5 312.5 591.5 304.5 591.5 294.5 594.5 292.5 596.5 288.5 597.5 281.5 596.5 273.5 594.5 270.5 588.5 260.5 566 269"/></g><g id="Capa_21" data-name="Capa 21"><path d="M791,316l-6-17,42,8-5.5,33.5-5,11-.44-9.61,2.73-2.79c1-.72,2-3.38,2.47-4.52a6.84,6.84,0,0,0-.55-5.68c-.71-1.36-1.9-1.09-3.3-.55-1.2.47-1.3,1.14-1.8,2.21s-.06,2.29-.59,3.44l-1.52-5.5,2-12Z" transform="translate(-225 -47)"/></g><g id="Capa_29" data-name="Capa 29"><polygon class="cls-30" points="586.5 326.5 582.83 317.5 581.96 316.92 592.5 312.5 596.5 318.5 586.5 326.5"/><polygon class="cls-30" points="570.5 317.5 577.5 325.5 582.83 317.5 582.92 316.88 575.5 312.5 570.5 317.5"/></g><g id="Capa_23" data-name="Capa 23"><polygon class="cls-2" points="586.5 324.5 582.83 316.5 592.5 311.5 596.5 318.5 586.5 324.5"/><polygon class="cls-2" points="570.5 317.5 577.5 323.5 582.83 316.5 575.5 311.5 570.5 317.5"/></g><g id="Capa_19" data-name="Capa 19"><path class="cls-8" d="M520,499.12l.39-.07c9.78-1.68,19.91-2.23,29.77-3.34a151.83,151.83,0,0,1,17.43-1.28c4.85,0,9.68.51,14.5,1l27.82,2.81a66.06,66.06,0,0,1,20.22,6c5.18,2.4,8.6,7.51,11.05,12.48,2.25,4.59,1.74,10.92,5.57,14.58,9.54,9.13,27.05,10.85,39.13,15,6.3,2.18,17.64,5,22,10.11s6,12.87,2.47,18.49c-3,4.7-13.66,6.77-19,8.45-41,13-83.72,21.16-126.73,21.78a337.85,337.85,0,0,1-75.85-7.31,297.23,297.23,0,0,1-37-10.49c-8.6-3.06-23.05-6.17-26.26-15.8,0,0-4-11,1-17s25-11,25-11l37-10c9.37-2.53,8.15-13.16,10.59-20.16C502.5,503.5,512.13,500.53,520,499.12Z" transform="translate(-225 -47)"/></g><g id="Capa_20" data-name="Capa 20"><path class="cls-31" d="M621.5,513c0,4.69-26.61,13.5-54.5,13.5s-51.5-8.81-51.5-13.5c0-7.5,24.61-9.5,52.5-9.5S621.5,505.5,621.5,513Z" transform="translate(-225 -47)"/></g><g id="Capa_15" data-name="Capa 15"><path d="M594.5,503.5c-11,11-26.94,1.6-26.94,1.6l34.94-25.6S607.5,496.5,594.5,503.5Z" transform="translate(-225 -47)"/></g><g id="Capa_14" data-name="Capa 14"><path class="cls-32" d="M534.5,498.5l13,11,8,2s22-10,32-17,21-21,21-21l1-8-6-18Z" transform="translate(-225 -47)"/></g><g id="Capa_17" data-name="Capa 17"><path class="cls-33" d="M533.65,498.55l4.85,3.95,4,1s22-13,36-23,26-25,26-25l1-4-2-5Z" transform="translate(-225 -47)"/></g><g id="Capa_13" data-name="Capa 13"><path class="cls-32" d="M511.9,478l18.6,19.53,6,2s25-12,39-23,27-26,27-26l1-7-10-23Z" transform="translate(-225 -47)"/></g><g id="Capa_16" data-name="Capa 16"><path class="cls-33" d="M510.65,477.55l6,5.44,1.82.51s31-14,45-24,32-31,32-31l-.41-4.35-2-5.14Z" transform="translate(-225 -47)"/></g><g id="Capa_12" data-name="Capa 12"><path class="cls-32" d="M572.5,394.5h8l13,22-1,6s-21,23-35,33-44,23-44,23l-6-2-15-19,1-11Z" transform="translate(-225 -47)"/></g><g id="Capa_2" data-name="Capa 2"><path class="cls-4" d="M322.64,309.56c-1.5-27.26,7.34-55.32,23.52-76.87a139.94,139.94,0,0,1,19.72-21.48c35.25-30.78,90.38-30,130.45-9.56,40.94,20.87,58.63,67.72,57,111.66A136.26,136.26,0,0,0,559,357.65a99.24,99.24,0,0,0,8.88,21c1.37,2.36,13.31,16.94,12.66,17.88,0,0-2,7-27,28-10.3,8.65-19,16-30,23-20,13-29,10-29,10-2-.67-5.26-7.3-6.65-9.09a93.35,93.35,0,0,0-8.11-9.32c-5.85-5.8-12.54-9.78-19.88-13.42a184.92,184.92,0,0,0-28.63-11.38c-9.5-2.9-19.59-4-28.83-7.72-28-11.2-54-29-68.56-56.12A97.77,97.77,0,0,1,322.64,309.56Z" transform="translate(-225 -47)"/></g><g id="Capa_3" data-name="Capa 3"><path class="cls-2" d="M345.44,265.48c5.5-20.66,19.47-40.32,40.23-47.73a18.43,18.43,0,0,1,7.2-1.3c5.73.35,12.91,6.91,11.28,13-.79,3-3.45,5.08-5.84,7.07-11.12,9.25-18.41,21.14-24.81,33.94-2.59,5.18-2.9,11.05-4.43,16.57-1.36,4.93-3.95,9.9-8.5,12.23a10.93,10.93,0,0,1-11.95-1.24c-2.49-2.21-3.66-5.54-4.37-8.79C342.52,281.27,343.38,273.25,345.44,265.48Z" transform="translate(-225 -47)"/><path class="cls-2" d="M437.57,220.52c-.77,3,.21,6.5,2.93,7.89,4.13,2.13,9-1.5,13.63-1.06,3.34.32,6.07,2.7,9.1,4.17,4.16,2,10,1.82,12.45-2.1a8.65,8.65,0,0,0,.76-6.62c-3.29-13.25-19.85-14.52-30.61-10.12-3.23,1.33-6.36,3.41-7.82,6.58A7.5,7.5,0,0,0,437.57,220.52Z" transform="translate(-225 -47)"/></g><g id="Capa_4" data-name="Capa 4"><path class="cls-34" d="M432.5,361.5s26,11,37,18,25,21,28,25,30,40.37,30,40.37" transform="translate(-225 -47)"/><path class="cls-34" d="M496.5,312.5c5.57,20.05,12.58,39.77,22.11,58.3,9.82,19.09,22.92,35.84,36.07,52.71" transform="translate(-225 -47)"/><path class="cls-35" d="M399.5,352.5s-5-11-1-15,24,21,33,17-20-51-12-56,37,40,47,34-23-50-13-56c8.57-5.14,31,35,39,30s-12-33-7-36,13,9,13,9" transform="translate(-225 -47)"/></g><g id="Capa_10" data-name="Capa 10"><path class="cls-36" d="M431.5,329.5l3-1,5-3,6-4s10-8,8-9c0-1-2.14,1.19-4.34,2.64s-5.37,3.07-4.66,2.36c1-1,1.15-.94,3.26-3.11,2.44-2.52,5.81-6.35,4.74-6.89,0-1.1-2,.84-4.77,2.8-2.22,1.59-5.94,3.91-5.23,3.2,1-1,2.12-2.12,4.21-4.5,2.45-2.8,4.87-6,3.79-6.5-.52-1-3.48,2.44-6.19,5.06-2.51,2.41-5.52,4.65-4.81,3.94,1-1,1.3-2.06,3.31-5.22s4.68-7.29,3.69-7.78c-.78-.78-3.23,2.63-5.93,5.86-4.23,5.06-9.07,11.14-9.07,11.14a21.08,21.08,0,0,1,.06-5.08c.44-2.88,1.52-5.92-.06-5.92-1.41,0-2.6,2.66-3.47,5.48a58.1,58.1,0,0,0-1.53,6.52L425.34,327Z" transform="translate(-225 -47)"/></g><g id="Capa_5" data-name="Capa 5"><path class="cls-2" d="M351.5,454.5s9.57-2.37,17.35-4.8c8.21-2.56,14.65-5.2,14.65-5.2.38-.22.44-3.43.51-4l.57-4.26c.39-2.83.76-5.67,1.09-8.52,1.21-10.36,1.4-20.83,1.83-31.25,0,0,30-23,36-33s11-35,11-35l-9-2s-6,19-14,29c-3,3-28,21-33,21-7,0-25-2-30,0-3,1.2-6.38,2.87-8.58,5.48-2.81,3.32-2.6,7.22-2.79,11.32a66,66,0,0,0,3.55,23.77c2.59,7.81,5.8,15.32,7.63,23.39C348.53,441.43,351.5,455.5,351.5,454.5Z" transform="translate(-225 -47)"/><path class="cls-2" d="M352.5,369.5l21-1,2.38,7.94s-12.38-.94-16.38-.94h-8Z" transform="translate(-225 -47)"/></g><g id="Capa_7" data-name="Capa 7"><path d="M392.5,327.5l-1-1h2l-1-5h2c-2-2-3.57-3.85-6.21-4.91-5.07-2-9.6-3.5-15.16-3.35-7.07.18-14.21,2.66-19.31,7.57a15.12,15.12,0,0,0-3.15,4.1,17.2,17.2,0,0,0-1.41,4.88c-2,12.29,2.83,24.88,8.24,35.71l13.77-2.75,6.23-19.25,8-14Z" transform="translate(-225 -47)"/></g><g id="Capa_6" data-name="Capa 6"><path class="cls-36" d="M373,368.57l.5-7.07h13l3-33s-4-2-6-2a20.34,20.34,0,0,0-5,1l-1,7-3,8c.27-.71-1.67-3.62-2.26-4.09a3.74,3.74,0,0,0-4.74.09c-2,2,0,6,0,6,2.83,5.66,2.42,5.42,4,7,1,1,2-1,2-1l-3,11h-15v7.86Z" transform="translate(-225 -47)"/></g><g id="Capa_11" data-name="Capa 11"><polygon class="cls-19" points="89 519 94 515 100 513 105 519 109 524 108.5 534.5 117.5 537.5 119.5 541.5 113.5 544.5 102.5 544.5 94.5 530.5 89 519"/><polygon class="cls-19" points="165.5 538.5 165.5 532.5 168.5 524.5 172.5 522.5 179.21 522.5 187.5 522.5 196.5 520.5 199.5 522.5 199.5 528.5 190.5 535.5 178.5 539.5 171.5 540.5 165.5 538.5"/></g><g id="Capa_8" data-name="Capa 8"><path class="cls-20" d="M392.5,572.5a15.63,15.63,0,0,0,11,0c2.86-12.39,6.72-24.79,9.58-37.18a79.81,79.81,0,0,0,2.15-13.94,6.29,6.29,0,0,0,0-1.15c-.42-4-2.84-10.46-4.22-14.28-1.52-4.21-3-7.41-4.56-11.62-1.83-5.07-3.66-9.13-5.49-14.2-1.07-3-17-35.78-17.42-35.63l-15.4,5.44-16.6,4.56c.23,13.59-.2,27.21,1,40.76.75,8.35,1.33,16.73,2,25.09a.76.76,0,0,1,0,.15c-10.34,12.21-28.88,39.83-29,40a29.3,29.3,0,0,0,3.24,5.83,39.39,39.39,0,0,0,4.76,5.17L359,546c2.94-2.94,9.59-8.27,11.5-11.92,1.64-3.15,5.18-15.63,6.22-19.5.9-3.33,1.8-7.66,2.7-11,.14-.51,1.43-5.67,1.12-6.13l17,25c.55.81-1.84,6.9-2.12,8.14a49.12,49.12,0,0,0-1.28,8.69c-.17,3.86-.37,7.72-.56,11.59l-1,20.77Z" transform="translate(-225 -47)"/></g><g id="Capa_9" data-name="Capa 9"><path class="cls-37" d="M371,533.15" transform="translate(-225 -47)"/><path class="cls-21" d="M351.5,474.5c.23,13.59-.2,7.21,1,20.76.75,8.35,1.33,16.73,2,25.09a.76.76,0,0,1,0,.15c-10.34,12.21-28.88,39.83-29,40a29.3,29.3,0,0,0,3.24,5.83,39.39,39.39,0,0,0,4.76,5.17L359,546c2.94-2.94,9.59-8.27,11.5-11.92,1.64-3.15,5.18-15.63,6.22-19.5.9-3.33,1.8-7.66,2.7-11,.14-.51,1.12-6.13,1.12-6.13l-9-16Z" transform="translate(-225 -47)"/></g></svg>